<svg width="63" height="31" fill="none" xmlns="http://www.w3.org/2000/svg"><path d="M3.317.768C2.286.875 1.362 1.241.75 1.787c-.613.546-.865 1.226-.7 1.891.166.665.734 1.26 1.58 1.656.846.395 1.902.557 2.933.45h11.672l.7 1.255 3.19 6.27 3.19 6.27c.311.653 1.634 1.255 2.646 1.255h27.233c1.089 0 2.334-.602 2.645-1.254l6.303-12.541c.31-.652-.156-1.254-1.245-1.254H26.349l-2.957-3.612c-.315-.414-.801-.765-1.405-1.013a5.54 5.54 0 0 0-2.018-.392H4.406a6.027 6.027 0 0 0-.7 0 6.031 6.031 0 0 0-.467 0h.077ZM27.905 25.85c-2.179 0-3.89 1.104-3.89 2.509 0 1.404 1.711 2.508 3.89 2.508 2.179 0 3.89-1.104 3.89-2.508 0-1.405-1.711-2.509-3.89-2.509Zm23.343 0c-2.18 0-3.891 1.104-3.891 2.509 0 1.404 1.712 2.508 3.89 2.508 2.18 0 3.89-1.104 3.89-2.508 0-1.405-1.71-2.509-3.89-2.509Z" fill="#ADA2A2"/></svg>