<svg width="60" height="78" fill="none" xmlns="http://www.w3.org/2000/svg"><path d="M3.157.058C2.175.332 1.296 1.274.713 2.678.129 4.08-.11 5.83.047 7.54c.157 1.71.698 3.243 1.503 4.259.806 1.016 1.81 1.433 2.792 1.16h11.107l.667 3.225 3.036 16.126 3.036 16.126c.296 1.678 1.555 3.226 2.517 3.226h25.917c1.037 0 2.222-1.548 2.518-3.226l5.998-32.252c.296-1.677-.148-3.225-1.185-3.225H25.075l-2.813-9.29c-.3-1.065-.763-1.967-1.338-2.604-.575-.638-1.24-.986-1.92-1.008H4.193a2.134 2.134 0 0 0-.667 0 2.129 2.129 0 0 0-.444 0h.074Zm23.4 64.506c-2.074 0-3.703 2.838-3.703 6.45s1.63 6.45 3.703 6.45 3.702-2.838 3.702-6.45-1.63-6.45-3.703-6.45Zm22.214 0c-2.073 0-3.702 2.838-3.702 6.45s1.629 6.45 3.702 6.45 3.703-2.838 3.703-6.45-1.63-6.45-3.703-6.45Z" fill="#ADA2A2"/></svg>