<svg width="63" height="45" fill="none" xmlns="http://www.w3.org/2000/svg"><path d="M3.317.015A3.971 3.971 0 0 0 .75 1.522a3.625 3.625 0 0 0-.7 2.798 3.737 3.737 0 0 0 1.58 2.45 4.088 4.088 0 0 0 2.933.667h11.672l.7 1.855 3.19 9.277 3.19 9.277c.311.965 1.634 1.856 2.646 1.856h27.233c1.089 0 2.334-.89 2.645-1.856l6.303-18.554c.31-.965-.156-1.855-1.245-1.855H26.349l-2.957-5.344A3.776 3.776 0 0 0 21.987.595a4.027 4.027 0 0 0-2.018-.58H4.406a4.078 4.078 0 0 0-.7 0 4.078 4.078 0 0 0-.467 0h.077Zm24.588 37.109c-2.179 0-3.89 1.632-3.89 3.71 0 2.078 1.711 3.711 3.89 3.711 2.179 0 3.89-1.633 3.89-3.71 0-2.079-1.711-3.711-3.89-3.711Zm23.343 0c-2.18 0-3.891 1.632-3.891 3.71 0 2.078 1.712 3.711 3.89 3.711 2.18 0 3.89-1.633 3.89-3.71 0-2.079-1.71-3.711-3.89-3.711Z" fill="#ADA2A2"/></svg>