<svg width="63" height="23" fill="none" xmlns="http://www.w3.org/2000/svg"><path d="M3.317.379C2.286.455 1.362.719.75 1.112c-.613.392-.865.882-.7 1.36.166.48.734.908 1.58 1.193.846.284 1.902.4 2.933.324h11.672l.7.903 3.19 4.512 3.19 4.513c.311.47 1.634.903 2.646.903h27.233c1.089 0 2.334-.433 2.645-.903l6.303-9.025c.31-.47-.156-.903-1.245-.903H26.349l-2.957-2.6c-.315-.298-.801-.55-1.405-.728a7.464 7.464 0 0 0-2.018-.282H4.406a8.37 8.37 0 0 0-.7 0 8.377 8.377 0 0 0-.467 0h.077ZM27.905 18.43c-2.179 0-3.89.794-3.89 1.805s1.711 1.805 3.89 1.805c2.179 0 3.89-.794 3.89-1.805 0-1.01-1.711-1.805-3.89-1.805Zm23.343 0c-2.18 0-3.891.794-3.891 1.805s1.712 1.805 3.89 1.805c2.18 0 3.89-.794 3.89-1.805 0-1.01-1.71-1.805-3.89-1.805Z" fill="#ADA2A2"/></svg>